<?xml version="1.0" encoding="utf-8"?>
<!-- Generator: Adobe Illustrator 25.4.2, SVG Export Plug-In . SVG Version: 6.00 Build 0)  -->
<svg version="1.1" id="Ebene_2" xmlns="http://www.w3.org/2000/svg" xmlns:xlink="http://www.w3.org/1999/xlink" x="0px" y="0px"
	 viewBox="0 0 752 752" style="enable-background:new 0 0 752 752;" xml:space="preserve">
<style type="text/css">
	.st0{fill-rule:evenodd;clip-rule:evenodd;fill:none;stroke:#000000;stroke-width:30;stroke-miterlimit:10;}
</style>
<path class="st0" d="M594.1,639.8c11.7-26-29.7-97.8-50.6-133.9l0,0c-5.4-8.5-14.6-22.4-30.4-26.1c-8.6-2-12.2-0.8-18.2-0.1
	c-27.4,3.2-79,56.2-117.8,6.2c-30.1-38.7-61.2-85-71.6-145.5c-5.5-32.1,10.4-64.4,39.5-79.1c2.9-1.5,5.4-2.5,7-2.9
	c9.1-2.7,64.5-22.6,41.3-80.8S351,49.2,306.9,51.7c0,0-51.2,1.1-94.2,40c-105.2,95.4-34.7,311.2-21.2,352.2
	c20.9,63.3,49.5,112.6,97.2,168.8C419.8,767.3,576.8,678.3,594.1,639.8z"/>
</svg>
